<svg width="80" height="80" viewBox="0 0 80 80" fill="none" xmlns="http://www.w3.org/2000/svg">
<circle cx="40" cy="40" r="39.75" fill="white" stroke="#593386" stroke-width="0.5"/>
<g clip-path="url(#clip0_517_266)">
<path d="M62.9771 30.244C62.8991 29.6152 62.6048 29.0331 62.1448 28.5974C62.3709 28.2807 62.5257 27.9187 62.5983 27.5363C62.6708 27.154 62.6596 26.7605 62.5652 26.3829C62.4906 25.9662 62.3025 25.5782 62.0215 25.2615C61.7405 24.9449 61.3776 24.712 60.9727 24.5884C60.5678 24.4648 60.1367 24.4553 59.7268 24.5611C59.3169 24.6668 58.9441 24.8836 58.6495 25.1876C58.4274 24.9463 58.1549 24.757 57.8512 24.6332C57.5475 24.5094 57.2203 24.4541 56.8928 24.4713C56.5654 24.4886 56.2457 24.5779 55.9567 24.7329C55.6678 24.8879 55.4166 25.1048 55.2211 25.368C54.824 25.8812 54.6305 26.5229 54.6777 27.1699C54.3103 27.2872 53.9748 27.4874 53.6971 27.7549C53.4194 28.0225 53.207 28.3504 53.0762 28.7131C52.9453 29.0759 52.8997 29.4639 52.9427 29.8471C52.9857 30.2303 53.1163 30.5985 53.3243 30.9233C53.491 31.1982 53.7142 31.4347 53.9791 31.6169C54.244 31.7992 54.5446 31.9231 54.861 31.9805C54.9087 32.5629 55.1367 33.1158 55.5134 33.5624C55.8901 34.0091 56.3967 34.3272 56.9626 34.4724C57.5118 34.5863 58.0833 34.518 58.5902 34.2778C59.0971 34.0376 59.5118 33.6386 59.7715 33.1413C60.0962 33.2556 60.4424 33.2956 60.7846 33.2583C61.1268 33.221 61.4563 33.1073 61.7487 32.9257C62.1898 32.6443 62.5404 32.2416 62.7583 31.766C62.9761 31.2903 63.0521 30.7618 62.9771 30.244ZM60.9991 31.6995C60.8262 31.8057 60.6224 31.8502 60.421 31.8257C60.2195 31.8011 60.0324 31.709 59.8901 31.5644C59.7961 31.475 59.6797 31.4128 59.5533 31.3842C59.4268 31.3556 59.295 31.3617 59.1718 31.402C59.0485 31.4422 58.9385 31.515 58.8532 31.6127C58.768 31.7103 58.7107 31.8293 58.6876 31.9568C58.6716 32.1242 58.6218 32.2866 58.5412 32.4342C58.4606 32.5818 58.3509 32.7115 58.2187 32.8154C58.0866 32.9194 57.9347 32.9954 57.7722 33.039C57.6098 33.0825 57.4403 33.0926 57.2738 33.0687C56.928 32.9596 56.6362 32.7238 56.4569 32.4085C56.2776 32.0933 56.2241 31.7219 56.3071 31.3689C56.3286 31.2492 56.3195 31.1261 56.2805 31.0109C56.2415 30.8957 56.1739 30.7924 56.0841 30.7104C55.9942 30.6285 55.8851 30.5707 55.7668 30.5424C55.6486 30.5142 55.5251 30.5163 55.4079 30.5488C55.2419 30.5885 55.0674 30.5723 54.9115 30.5028C54.7556 30.4332 54.6269 30.3143 54.5454 30.1643C54.0631 29.3909 54.6705 28.3509 55.4079 28.5629C55.5421 28.6001 55.6842 28.5975 55.8169 28.5555C55.9497 28.5134 56.0673 28.4338 56.1556 28.3261C56.2439 28.2185 56.2991 28.0875 56.3144 27.9491C56.3296 27.8107 56.3044 27.6709 56.2417 27.5466C56.139 27.3416 56.0951 27.1121 56.115 26.8837C56.135 26.6553 56.2179 26.4369 56.3545 26.2528C56.9022 25.5535 57.9164 25.9704 57.9164 27.0284C57.9205 27.219 58.0001 27.4002 58.1378 27.5321C58.2755 27.664 58.4599 27.7357 58.6506 27.7316C58.8412 27.7276 59.0224 27.6479 59.1543 27.5102C59.2862 27.3725 59.358 27.1881 59.3539 26.9974C59.3826 25.7475 60.8711 25.5024 61.1673 26.7229C61.2369 26.9763 61.2199 27.2458 61.119 27.4885C61.0181 27.7312 60.839 27.9332 60.6102 28.0626C60.4752 28.1251 60.3629 28.228 60.2888 28.3571C60.2147 28.4861 60.1825 28.635 60.1967 28.7831C60.2108 28.9312 60.2705 29.0713 60.3676 29.184C60.4648 29.2968 60.5945 29.3766 60.7389 29.4124C60.9599 29.4818 61.1551 29.6154 61.2997 29.7964C61.4442 29.9773 61.5315 30.1972 61.5504 30.428C61.5885 30.6704 61.5569 30.9187 61.4593 31.1438C61.3617 31.3689 61.2021 31.5617 60.9991 31.6995Z" fill="#593386"/>
<path d="M20.2294 33.1409C20.489 33.6381 20.9036 34.0371 21.4103 34.2773C21.9171 34.5176 22.4884 34.5859 23.0376 34.4721C23.6033 34.3267 24.1096 34.0087 24.4861 33.5622C24.8627 33.1157 25.0907 32.563 25.1385 31.9809C25.4548 31.9235 25.7553 31.7996 26.0202 31.6175C26.2851 31.4353 26.5083 31.1991 26.6752 30.9243C26.8833 30.5996 27.014 30.2313 27.0571 29.848C27.1002 29.4647 27.0546 29.0766 26.9237 28.7137C26.7929 28.3509 26.5804 28.0229 26.3026 27.7553C26.0249 27.4877 25.6893 27.2875 25.3218 27.1703C25.3689 26.5229 25.1751 25.8809 24.7777 25.3677C24.5822 25.1046 24.331 24.888 24.0422 24.7331C23.7533 24.5783 23.4339 24.4891 23.1066 24.4718C22.7793 24.4546 22.4523 24.5098 22.1487 24.6334C21.8452 24.7571 21.5727 24.9462 21.3507 25.1873C21.0014 24.8214 20.541 24.5814 20.0411 24.5044C17.9223 24.186 16.5688 26.8303 17.8554 28.597C17.554 28.8861 17.3215 29.2394 17.1753 29.6306C17.0292 30.0218 16.973 30.441 17.0111 30.8569C17.0491 31.2728 17.1804 31.6748 17.3951 32.033C17.6099 32.3912 17.9025 32.6965 18.2514 32.926C18.5444 33.1068 18.8739 33.2199 19.2161 33.2571C19.5583 33.2943 19.9045 33.2546 20.2294 33.1409ZM19.2613 29.4106C19.4052 29.3744 19.5344 29.2946 19.6312 29.182C19.7279 29.0694 19.7874 28.9296 19.8015 28.7819C19.8156 28.6341 19.7836 28.4856 19.7099 28.3567C19.6362 28.2279 19.5244 28.125 19.3899 28.0623C18.3708 27.5893 18.7682 25.7702 19.8313 25.9283C20.0778 25.9861 20.2954 26.1302 20.4449 26.3345C20.5944 26.5388 20.6659 26.7899 20.6463 27.0424C20.6541 27.233 20.7373 27.4127 20.8777 27.542C21.018 27.6712 21.2039 27.7394 21.3945 27.7316C21.5852 27.7238 21.7649 27.6406 21.8941 27.5003C22.0234 27.36 22.0916 27.174 22.0838 26.9834C22.0881 26.021 23.08 25.5279 23.6457 26.2524C23.7824 26.4365 23.8655 26.6548 23.8855 26.8833C23.9056 27.1117 23.8618 27.3412 23.7592 27.5462C23.6965 27.6705 23.6713 27.8104 23.6865 27.9487C23.7018 28.0871 23.757 28.2181 23.8453 28.3257C23.9336 28.4334 24.0512 28.5131 24.184 28.5551C24.3167 28.5971 24.4588 28.5997 24.593 28.5625C25.3304 28.3469 25.9392 29.3891 25.4555 30.1646C25.3737 30.3143 25.245 30.433 25.0891 30.5024C24.9333 30.5717 24.7589 30.5879 24.593 30.5484C24.4757 30.5158 24.3522 30.5135 24.2338 30.5417C24.1155 30.5699 24.0062 30.6277 23.9163 30.7097C23.8264 30.7916 23.7587 30.895 23.7197 31.0103C23.6806 31.1255 23.6715 31.2488 23.6931 31.3685C23.7761 31.7214 23.7227 32.0927 23.5436 32.4079C23.3644 32.7232 23.0728 32.9591 22.7271 33.0684C22.5606 33.0925 22.3909 33.0825 22.2283 33.0391C22.0658 32.9956 21.9138 32.9196 21.7815 32.8156C21.6492 32.7116 21.5394 32.5819 21.4588 32.4342C21.3782 32.2865 21.3285 32.1239 21.3126 31.9564C21.2895 31.8287 21.2323 31.7097 21.147 31.6119C21.0617 31.5141 20.9515 31.4412 20.8282 31.401C20.7048 31.3607 20.5729 31.3546 20.4463 31.3833C20.3198 31.412 20.2033 31.4745 20.1094 31.564C19.9669 31.7086 19.7796 31.8007 19.5781 31.8252C19.3766 31.8497 19.1727 31.8053 18.9997 31.6991C18.8051 31.5647 18.6508 31.3799 18.553 31.1646C18.4553 30.9493 18.4178 30.7114 18.4447 30.4765C18.4716 30.2415 18.5617 30.0183 18.7055 29.8306C18.8493 29.6429 19.0414 29.4977 19.2613 29.4106Z" fill="#593386"/>
<path d="M57.9688 30.5781C58.5642 30.5781 59.0469 30.0954 59.0469 29.5C59.0469 28.9046 58.5642 28.4219 57.9688 28.4219C57.3733 28.4219 56.8906 28.9046 56.8906 29.5C56.8906 30.0954 57.3733 30.5781 57.9688 30.5781Z" fill="#593386"/>
<path d="M22.0312 30.5781C22.6267 30.5781 23.1094 30.0954 23.1094 29.5C23.1094 28.9046 22.6267 28.4219 22.0312 28.4219C21.4358 28.4219 20.9531 28.9046 20.9531 29.5C20.9531 30.0954 21.4358 30.5781 22.0312 30.5781Z" fill="#593386"/>
<path d="M40 33.8068C44.2565 33.8131 48.4129 32.5161 51.9104 30.0901C51.9879 30.0362 52.054 29.9676 52.105 29.8882C52.156 29.8087 52.1908 29.72 52.2075 29.6271C52.2242 29.5342 52.2224 29.4389 52.2023 29.3467C52.1821 29.2545 52.144 29.1671 52.0901 29.0896C52.0362 29.0121 51.9676 28.946 51.8882 28.895C51.8087 28.8441 51.72 28.8093 51.6271 28.7926C51.5342 28.7759 51.4389 28.7777 51.3467 28.7978C51.2545 28.8179 51.1671 28.856 51.0896 28.9099C47.8306 31.1635 43.9623 32.3706 40 32.3706C36.0377 32.3706 32.1695 31.1635 28.9104 28.9099C28.7539 28.8011 28.5606 28.7589 28.373 28.7926C28.1853 28.8263 28.0188 28.9331 27.9099 29.0896C27.8011 29.2461 27.7589 29.4395 27.7926 29.6271C27.8263 29.8147 27.9331 29.9813 28.0896 30.0901C31.5871 32.5161 35.7435 33.8131 40 33.8068Z" fill="#593386"/>
<path d="M37.3587 34.5708C37.2685 34.5361 37.1723 34.5198 37.0757 34.5231C36.9792 34.5264 36.8843 34.5491 36.7967 34.5899C36.7091 34.6307 36.6307 34.6887 36.566 34.7605C36.5014 34.8323 36.4518 34.9163 36.4204 35.0077C36.389 35.0991 36.3763 35.1958 36.3831 35.2922C36.39 35.3886 36.4161 35.4826 36.4601 35.5686C36.5041 35.6546 36.5649 35.7309 36.6391 35.7929C36.7132 35.8548 36.799 35.9012 36.8915 35.9293C39.559 36.8392 42.4173 37.0404 45.186 36.5131C47.9548 35.9858 50.539 34.7481 52.6853 32.9213C52.8302 32.7974 52.9199 32.621 52.9347 32.4309C52.9495 32.2409 52.8883 32.0527 52.7644 31.9079C52.6404 31.763 52.4641 31.6733 52.274 31.6584C52.084 31.6436 51.8958 31.7049 51.7509 31.8288C49.7945 33.4925 47.4397 34.6198 44.9169 35.1005C42.3941 35.5811 39.7898 35.3986 37.3587 34.5708Z" fill="#593386"/>
<path d="M26.4702 32.7816C29.0689 36.5438 33.0482 39.1273 37.5423 39.97C42.0364 40.8126 46.6814 39.8462 50.4664 37.281C50.5489 37.23 50.6202 37.1628 50.6761 37.0834C50.7319 37.0041 50.7711 36.9143 50.7913 36.8194C50.8115 36.7245 50.8122 36.6265 50.7935 36.5313C50.7748 36.4361 50.7371 36.3457 50.6825 36.2655C50.6279 36.1853 50.5577 36.1169 50.476 36.0646C50.3943 36.0123 50.3029 35.977 50.2072 35.961C50.1115 35.9449 50.0136 35.9484 49.9193 35.9712C49.825 35.994 49.7363 36.0356 49.6585 36.0936C46.1876 38.4453 41.9285 39.3311 37.8077 38.5585C33.687 37.7859 30.038 35.4173 27.6547 31.968C27.5447 31.8163 27.3797 31.7136 27.195 31.6818C27.0103 31.65 26.8205 31.6916 26.6661 31.7977C26.5116 31.9038 26.4047 32.066 26.3681 32.2499C26.3315 32.4337 26.3682 32.6245 26.4702 32.7816Z" fill="#593386"/>
<path d="M48.9082 39.7097C41.5259 45.3361 31.2708 41.8034 27.6842 35.6092C27.6393 35.5233 27.5775 35.4474 27.5024 35.386C27.4274 35.3247 27.3407 35.2791 27.2476 35.2521C27.1545 35.2251 27.0569 35.2172 26.9607 35.2289C26.8645 35.2406 26.7716 35.2716 26.6877 35.3201C26.6037 35.3686 26.5305 35.4336 26.4723 35.5112C26.4142 35.5887 26.3723 35.6772 26.3493 35.7714C26.3262 35.8655 26.3224 35.9634 26.3381 36.059C26.3539 36.1547 26.3888 36.2462 26.4408 36.328C30.5197 43.3717 41.7451 46.9763 49.7793 40.8518C49.8573 40.7957 49.9231 40.7245 49.9731 40.6425C50.0231 40.5605 50.0561 40.4693 50.0702 40.3743C50.0844 40.2793 50.0793 40.1825 50.0554 40.0895C50.0315 39.9965 49.9891 39.9092 49.9309 39.8328C49.8727 39.7564 49.7998 39.6925 49.7164 39.6448C49.6331 39.5971 49.541 39.5665 49.4457 39.555C49.3504 39.5435 49.2537 39.5511 49.1614 39.5776C49.0691 39.604 48.983 39.6494 48.9082 39.7097Z" fill="#593386"/>
<path d="M56.0742 35.2989C55.9861 35.2641 55.8919 35.247 55.7972 35.2486C55.7024 35.2503 55.6089 35.2707 55.5221 35.3087C55.4353 35.3466 55.3568 35.4013 55.2912 35.4697C55.2256 35.5381 55.1741 35.6188 55.1398 35.7072C49.7564 49.4806 30.2366 49.477 24.8546 35.7072C24.7852 35.5295 24.6481 35.3867 24.4734 35.3101C24.2987 35.2336 24.1008 35.2295 23.9231 35.2989C23.7454 35.3683 23.6026 35.5054 23.5261 35.6801C23.4495 35.8548 23.4455 36.0528 23.5149 36.2304C29.3755 51.2214 50.6196 51.2178 56.4796 36.2304C56.5493 36.0531 56.5457 35.8554 56.4697 35.6808C56.3937 35.5061 56.2514 35.3688 56.0742 35.2989Z" fill="#593386"/>
<path d="M61.5625 33.8125C61.3719 33.8125 61.1891 33.8882 61.0543 34.023C60.9195 34.1578 60.8438 34.3406 60.8438 34.5312V55.9672C60.6191 56.0708 60.3715 56.1143 60.125 56.0937C59.3854 56.0937 57.25 55.3628 57.25 54.6562C57.25 53.5134 58.8025 40.8433 59.4005 36.0579C59.4194 35.8711 59.3644 35.6844 59.2475 35.5377C59.1305 35.3909 58.9608 35.2957 58.7745 35.2724C58.5883 35.2491 58.4004 35.2996 58.2509 35.4131C58.1014 35.5266 58.0022 35.694 57.9745 35.8796C57.9026 36.4417 56.5765 47.0727 56.0375 52.1277C54.904 51.7252 54.375 51.2875 54.375 51.0625C54.375 50.0843 56.1237 43.162 57.2256 39.0292C57.2517 38.9374 57.2593 38.8414 57.248 38.7467C57.2367 38.652 57.2066 38.5604 57.1595 38.4775C57.1124 38.3945 57.0493 38.3217 56.9738 38.2634C56.8983 38.2051 56.812 38.1623 56.7198 38.1377C56.6276 38.1131 56.5315 38.1071 56.437 38.12C56.3425 38.1329 56.2515 38.1645 56.1693 38.213C56.0871 38.2615 56.0154 38.3258 55.9583 38.4022C55.9013 38.4787 55.86 38.5657 55.8369 38.6583C55.5401 39.7717 52.9375 49.574 52.9375 51.0625C52.9375 52.127 53.9373 52.9751 55.8894 53.5932C55.8405 54.1129 55.8125 54.4881 55.8125 54.6562C55.8125 57.358 62.2812 58.7078 62.2812 56.0937V34.5312C62.2812 34.3406 62.2055 34.1578 62.0707 34.023C61.9359 33.8882 61.7531 33.8125 61.5625 33.8125Z" fill="#593386"/>
<path d="M23.2833 38.1494C23.0992 38.1986 22.9421 38.319 22.8467 38.4839C22.7513 38.6489 22.7253 38.845 22.7744 39.0292C23.8763 43.162 25.625 50.0843 25.625 51.0625C25.625 51.2875 25.096 51.7252 23.9625 52.1277C23.4235 47.0727 22.0938 36.4417 22.0255 35.8796C21.9978 35.694 21.8986 35.5266 21.7491 35.4131C21.5996 35.2996 21.4117 35.2491 21.2255 35.2724C21.0392 35.2957 20.8695 35.3909 20.7525 35.5377C20.6356 35.6844 20.5806 35.8711 20.5995 36.0579C21.1975 40.8433 22.75 53.5134 22.75 54.6562C22.75 55.3628 20.6146 56.0938 19.875 56.0938C19.6285 56.1143 19.3809 56.0708 19.1562 55.9673V34.5312C19.1562 34.3406 19.0805 34.1578 18.9457 34.023C18.8109 33.8882 18.6281 33.8125 18.4375 33.8125C18.2469 33.8125 18.0641 33.8882 17.9293 34.023C17.7945 34.1578 17.7188 34.3406 17.7188 34.5312V56.0938C17.7188 56.1527 17.7432 57.5312 19.875 57.5312C20.6369 57.5312 24.1875 56.7823 24.1875 54.6562C24.1875 54.4881 24.1595 54.1129 24.1106 53.5932C26.0627 52.9751 27.0625 52.127 27.0625 51.0625C27.0625 49.574 24.4599 39.7717 24.1631 38.6583C24.1139 38.4742 23.9935 38.3171 23.8286 38.2217C23.6636 38.1263 23.4675 38.1003 23.2833 38.1494Z" fill="#593386"/>
</g>
<defs>
<clipPath id="clip0_517_266">
<rect width="46" height="46" fill="white" transform="translate(17 18)"/>
</clipPath>
</defs>
</svg>
